<svg width="56" height="74" viewBox="0 0 56 74" fill="none" xmlns="http://www.w3.org/2000/svg">
<path d="M0.620779 38.9693L1.82667 40.7608L15.6471 33.6188L28.4329 54.7273L53.1315 40.756C55.5301 39.3992 56.3037 36.3959 54.8631 34.0475L42.6677 14.2L40.4906 15.358C39.8811 15.6814 39.3889 16.4645 39.3889 17.1064C39.3889 17.4477 39.3889 17.8477 39.3889 18.2716C39.3889 19.5577 37.4298 21.6749 35.0132 22.9981L26.5061 27.6576C24.0883 28.9821 22.1304 28.9486 22.1304 27.5822C22.1304 27.5822 22.1304 27.0289 22.1304 26.3452C22.1304 25.6614 21.6358 25.3692 21.0299 25.6937L18.6085 26.9798V25.6578C18.6085 24.9692 18.1092 24.1609 17.4937 23.8532L14.6364 22.4233C14.0197 22.1156 13.015 22.1012 12.3899 22.3922L7.35796 24.7321C6.73406 25.0231 6.22631 25.8171 6.22631 26.5056V33.5566C6.22631 33.5566 4.70069 34.3661 2.8194 35.3672C0.939316 36.3659 -0.0450351 37.9778 0.620779 38.9693Z" fill="black"/>
<path d="M29.2879 12.1679C28.1695 11.8649 27.7024 11.6242 27.6701 11.2195C27.6414 10.865 27.8773 10.477 28.6988 10.4099C29.6101 10.3357 30.2268 10.5788 30.5561 10.7033L30.8183 9.24357C30.3597 9.07712 29.7753 8.93342 28.9383 8.97533L28.846 7.86404L27.6078 7.96344L27.7048 9.16454C26.3732 9.52858 25.6619 10.4638 25.7541 11.5895C25.8535 12.8157 26.8294 13.3738 28.2209 13.7175C29.1945 13.957 29.6244 14.2264 29.6639 14.7066C29.7023 15.2012 29.234 15.5329 28.5012 15.5928C27.6785 15.6598 26.9109 15.455 26.3564 15.2084L26.0978 16.7172C26.6007 16.9447 27.4414 17.1172 28.2916 17.0849L28.391 18.286L29.6412 18.1854L29.5346 16.8849C30.9692 16.5256 31.6734 15.5006 31.5835 14.3749C31.4889 13.2229 30.8375 12.5762 29.2879 12.1679Z" fill="black"/>
<path d="M27.3001 0.118559C27.3001 0.118559 17.5523 0.440688 17.7116 14.0743C17.8409 25.2435 27.2462 24.2304 27.2462 24.2304C27.2462 24.2304 37.3495 24.1849 36.5005 7.96224C36.0024 -1.58669 27.3001 0.118559 27.3001 0.118559ZM20.3413 13.448C20.3401 13.448 20.339 13.448 20.3378 13.448C20.1665 13.448 20.0276 13.3115 20.0264 13.1403C19.9031 2.54231 27.5767 2.1651 27.6533 2.1627C27.8461 2.14714 27.9683 2.29204 27.9755 2.46328C27.9814 2.63572 27.8473 2.77942 27.6749 2.78661C27.3827 2.79738 20.5353 3.16262 20.6515 13.1331C20.6515 13.3055 20.5138 13.4468 20.3413 13.448ZM27.6042 21.2797C27.6042 21.2797 22.443 21.5516 22.5436 13.957C22.6573 5.53489 28.9371 4.44994 28.9371 4.44994C28.9371 4.44994 34.5737 3.36381 34.4564 9.86388C34.236 22.1802 27.6042 21.2797 27.6042 21.2797Z" fill="black"/>
<path d="M21.0694 72.9761C23.4585 74.3509 27.3228 74.3401 29.7035 72.951L50.4287 60.8502C52.8094 59.4611 54.7398 56.1009 54.7398 53.3442V43.9186L27.5982 59.182L14.7071 37.6401L4.19055 42.8983V58.2648C4.19055 61.0202 6.12572 64.3685 8.51355 65.7444L9.63562 66.391V53.0005L16.6207 57.3511V70.4123L21.0694 72.9761Z" fill="black"/>
</svg>
