<svg width="59" height="59" viewBox="0 0 59 59" fill="none" xmlns="http://www.w3.org/2000/svg">
<path d="M30.4219 46.0938C30.4219 40.5026 25.8724 35.9532 20.2812 35.9532C14.6901 35.9532 10.1406 40.5026 10.1406 46.0938C10.1406 51.685 14.6901 56.2344 20.2812 56.2344C25.8724 56.2344 30.4219 51.685 30.4219 46.0938ZM23.9688 44.25H22.125V43.3282H19.3594C18.8505 43.3282 18.4375 43.7421 18.4375 44.25C18.4375 44.758 18.8505 45.1719 19.3594 45.1719H21.2031C22.7279 45.1719 23.9688 46.4127 23.9688 47.9375C23.9688 49.4623 22.7279 50.7032 21.2031 50.7032V52.5469H19.3594V50.7032H16.5938V47.9375H18.4375V48.8594H21.2031C21.712 48.8594 22.125 48.4455 22.125 47.9375C22.125 47.4296 21.712 47.0157 21.2031 47.0157H19.3594C17.8346 47.0157 16.5938 45.7748 16.5938 44.25C16.5938 42.7252 17.8346 41.4844 19.3594 41.4844V39.6407H21.2031V41.4844H23.9688V44.25Z" fill="black"/>
<path d="M32.2656 46.0938C32.2656 50.3657 30.0126 54.1122 26.6385 56.2344H34.1094V35.9532H26.6385C30.0126 38.0753 32.2656 41.8218 32.2656 46.0938Z" fill="black"/>
<path d="M20.2812 34.1094H37.1737C37.3645 34.1094 37.5498 34.0882 37.7397 34.0845C37.4687 29.8835 35.719 25.9609 32.721 22.963L25.4308 15.6719H15.1317L7.84147 22.9621C4.56789 26.2356 2.76562 30.5878 2.76562 35.2165C2.76562 40.1725 4.86289 44.8031 8.47295 48.0638C8.36602 47.4213 8.29688 46.7658 8.29688 46.0938C8.29688 39.4858 13.6733 34.1094 20.2812 34.1094ZM34.7169 29.1386L33.0206 29.8605C32.7975 29.3359 32.5357 28.8178 32.2435 28.3218L33.8337 27.3871C34.1656 27.9522 34.4625 28.5413 34.7169 29.1386ZM32.7367 25.7646L31.2783 26.8929C30.9289 26.4412 30.5454 26.0052 30.1379 25.594L31.4452 24.2942C31.9061 24.7579 32.3412 25.2529 32.7367 25.7646ZM30.1398 22.9888L28.8363 24.2923L27.5318 22.9879L28.8353 21.6843L30.1398 22.9888ZM26.2283 19.0773L27.5318 20.3808L26.2283 21.6843L24.9247 20.3808L26.2283 19.0773ZM4.60938 35.2165C4.60938 31.0801 6.21989 27.1907 9.145 24.2665L9.82442 24.8906L10.4707 25.5479L10.443 25.5756C7.87189 28.1467 6.45312 31.5733 6.45312 35.2165C6.45312 36.0269 6.52503 36.8409 6.66608 37.6346L4.85091 37.9591C4.6905 37.0585 4.60938 36.1357 4.60938 35.2165ZM6.11019 41.8808C5.80781 41.2447 5.54784 40.5846 5.33581 39.92L7.09291 39.3622C7.2782 39.9476 7.50775 40.5284 7.77509 41.0889L6.11019 41.8808Z" fill="black"/>
<path d="M25.4309 13.8281L30.3933 8.86567C30.2394 7.91245 29.4705 7.14822 28.4859 7.02469L26.4661 6.77209L24.2951 13.8281H25.4309Z" fill="black"/>
<path d="M16.237 13.8281L13.8936 6.79791L12.0775 7.02469C11.0929 7.14822 10.3241 7.91154 10.1701 8.86568L15.1316 13.8281H16.237Z" fill="black"/>
<path d="M22.3656 13.8281L25.5673 3.42384L23.4166 2.88638L20.237 7.12701L18.0125 3.79074L15.033 4.38627L18.1794 13.8281H22.3656Z" fill="black"/>
<path d="M47.0156 56.2344H50.7031V31.9845C49.5388 32.7533 48.3062 33.418 47.0156 33.9702V56.2344Z" fill="black"/>
<path d="M35.9531 35.9531V56.2344H39.6406V35.8342C38.8275 35.9116 38.0043 35.9531 37.1737 35.9531H35.9531Z" fill="black"/>
<path d="M53.7564 29.5802C53.3664 29.9471 52.9608 30.2928 52.5469 30.6302V56.2344H56.2344V26.7086C55.5789 27.6784 54.7594 28.6371 53.7564 29.5802Z" fill="black"/>
<path d="M41.4844 56.2344H45.1719V34.6736C43.979 35.0709 42.7455 35.3742 41.4844 35.5881V56.2344Z" fill="black"/>
<path d="M52.5468 16.5937V5.91291L54.6607 8.02677L55.9642 6.72324L51.625 2.38397L47.2857 6.72324L48.5892 8.02677L50.7031 5.91291V16.5937H52.5468Z" fill="black"/>
<path d="M43.3281 8.8371L38.9888 13.1764L40.2924 14.4799L42.4062 12.366V23.0469H44.25V12.366L46.3638 14.4799L47.6674 13.1764L43.3281 8.8371Z" fill="black"/>
</svg>
