<svg width="65" height="67" viewBox="0 0 65 67" fill="none" xmlns="http://www.w3.org/2000/svg">
<path d="M33.6552 65.8448V53.1379C33.6552 52.4999 33.138 51.9828 32.5 51.9828C31.862 51.9828 31.3448 52.4999 31.3448 53.1379V65.8448C31.3448 66.4828 31.862 67 32.5 67C33.138 67 33.6552 66.4828 33.6552 65.8448Z" fill="black"/>
<path d="M37.1207 43.8966V60.069C37.1207 60.707 37.6379 61.2242 38.2759 61.2242C38.9139 61.2242 39.4311 60.707 39.4311 60.069V43.8966C39.4311 43.2586 38.9139 42.7414 38.2759 42.7414C37.6379 42.7414 37.1207 43.2586 37.1207 43.8966Z" fill="black"/>
<path d="M27.8793 60.069V49.6724C27.8793 49.0344 27.3621 48.5172 26.7241 48.5172C26.0862 48.5172 25.569 49.0344 25.569 49.6724V60.069C25.569 60.7069 26.0862 61.2241 26.7241 61.2241C27.3621 61.2241 27.8793 60.7069 27.8793 60.069Z" fill="black"/>
<path d="M0.155182 26.569V62.3793C0.155182 63.6553 1.18956 64.6897 2.46553 64.6897C3.7415 64.6897 4.77587 63.6553 4.77587 62.3793V35.8103C4.77587 35.1724 5.29306 34.6552 5.93104 34.6552C6.56903 34.6552 7.08622 35.1724 7.08622 35.8103V56.6034H8.24139C10.1553 56.6034 11.7069 55.0519 11.7069 53.1379V30.0345C11.7069 29.3965 12.2241 28.8793 12.8621 28.8793C13.5001 28.8793 14.0173 29.3965 14.0173 30.0345V48.5172H15.1724C17.0864 48.5172 18.6379 46.9657 18.6379 45.0517C18.6379 40.7891 18.3029 36.1453 20.2205 32.6567C14.0917 27.7035 11.4908 19.5829 13.6014 11.9907C4.67191 15.3753 0.155182 20.2733 0.155182 26.569Z" fill="black"/>
<path d="M51.3986 11.9907C53.5061 19.5829 50.9057 27.7017 44.7795 32.6567C46.7086 36.1684 46.3621 40.8122 46.3621 45.0517C46.3621 46.9657 47.9136 48.5172 49.8276 48.5172H50.9828V30.0345C50.9828 29.3965 51.4999 28.8793 52.1379 28.8793C52.7759 28.8793 53.2931 29.3965 53.2931 30.0345V53.1379C53.2931 55.0519 54.8447 56.6034 56.7586 56.6034H57.9138V35.8103C57.9138 35.1724 58.431 34.6552 59.069 34.6552C59.7069 34.6552 60.2241 35.1724 60.2241 35.8103V62.3793C60.2241 63.6553 61.2585 64.6897 62.5345 64.6897C63.8105 64.6897 64.8448 63.6553 64.8448 62.3793V26.569C64.8448 20.2733 60.3281 15.3753 51.3986 11.9907Z" fill="black"/>
<path d="M49.8276 17.3276C49.8276 7.75782 42.0698 0 32.5 0C22.9302 0 15.1724 7.75782 15.1724 17.3276C15.1724 26.8973 22.9302 34.6552 32.5 34.6552C37.0956 34.6552 41.5029 32.8296 44.7525 29.58C48.002 26.3305 49.8276 21.9231 49.8276 17.3276ZM33.6552 28.8793V31.1897C33.6552 31.8276 33.138 32.3448 32.5 32.3448C31.862 32.3448 31.3448 31.8276 31.3448 31.1897V28.8793C26.7241 28.6483 24.9452 27.0426 24.7488 26.8462C24.4558 26.5532 24.3413 26.1261 24.4486 25.7258C24.5559 25.3256 24.8685 25.0129 25.2688 24.9057C25.669 24.7984 26.0961 24.9128 26.3891 25.2059C28.1681 26.7422 38.2759 28.2093 38.2759 22.5259C38.2759 19.3722 36.1388 18.9448 32.3614 18.4712C29.0345 18.0553 24.4138 17.4778 24.4138 12.1293C24.4138 8.40965 27.7985 6.23793 31.3448 5.84517V3.46552C31.3448 2.82753 31.862 2.31034 32.5 2.31034C33.138 2.31034 33.6552 2.82753 33.6552 3.46552V5.83362C38.5878 6.26103 40.3667 9.38 40.4476 9.51862C40.654 9.87973 40.652 10.3235 40.4424 10.6828C40.2329 11.042 39.8475 11.2622 39.4316 11.2604C39.0157 11.2585 38.6324 11.0349 38.426 10.6738C38.3567 10.5236 36.8666 8.08621 32.5 8.08621C30.0973 8.08621 26.7241 9.34534 26.7241 12.1293C26.7241 15.2829 28.8612 15.7103 32.6386 16.184C35.9655 16.5998 40.5862 17.1774 40.5862 22.5259C40.5862 25.4138 38.7379 28.4288 33.6552 28.8793Z" fill="black"/>
</svg>
